FFmpeg version SVN-r25716, Copyright (c) 2000-2010 the FFmpeg developers  built on Nov 10 2010 12:23:18 with gcc 4.1.2 20080704 (Red Hat 4.1.2-48)  configuration: --enable-libmp3lame --enable-shared --disable-mmx --arch=x86_64  libavutil     50.33. 0 / 50.33. 0  libavcore      0.12. 1 /  0.12. 1  libavcodec    52.94. 4 / 52.94. 4  libavformat   52.84. 0 / 52.84. 0  libavdevice   52. 2. 2 / 52. 2. 2  libavfilter    1.59. 0 /  1.59. 0  libswscale     0.12. 0 /  0.12. 0[mov,mp4,m4a,3gp,3g2,mj2 @ 0xc4c74c0] max_analyze_duration reachedInput #0, mov,mp4,m4a,3gp,3g2,mj2, from '/RAID10/data/converted_video_files/37404.mov':  Duration: 00:00:23.27, start: 0.000000, bitrate: 427 kb/s    Stream #0.0(eng): Video: smc, pal8, 320x240, 413 kb/s, 2.88 fps, 600 tbr, 600 tbn, 600 tbc    Stream #0.1(eng): Data: rtp  / 0x20707472, 13 kb/s[buffer @ 0xc557d90] w:320 h:240 pixfmt:pal8[ffsink @ 0xc558000] auto-inserting filter 'auto-inserted scaler 0' between the filter 'src' and the filter 'out'[scale @ 0xc558320] w:320 h:240 fmt:pal8 -> w:320 h:240 fmt:yuv420p flags:0x4Output #0, flv, to '/RAID10/data/converted_video_files/37404.flv':  Metadata:    encoder         : Lavf52.84.0    Stream #0.0(eng): Video: flv, yuv420p, 320x240, q=2-31, 600 kb/s, 1k tbn, 24 tbcStream mapping:  Stream #0.0 -> #0.0Press [q] to stop encodingframe=   67 fps=  0 q=3.5 Lsize=     675kB time=22.96 bitrate= 240.9kbits/s    video:674kB audio:0kB global headers:0kB muxing overhead 0.185814%